<?xml version="1.0" encoding="UTF-8" standalone="no"?>
<!DOCTYPE svg PUBLIC "-//W3C//DTD SVG 20010904//EN"
              "http://www.w3.org/TR/2001/REC-SVG-20010904/DTD/svg10.dtd">

<svg xmlns="http://www.w3.org/2000/svg"
     width="0.213333in" height="0.183333in"
     viewBox="0 0 64 55">
  <path id="Selection #1"
        fill="none" stroke="black" stroke-width="1"
        d="M 29.09,1.87
           C 25.26,3.96 23.03,7.68 19.00,8.69
             14.91,9.71 6.74,7.74 3.74,10.74
             1.94,12.54 2.04,15.64 2.00,18.00
             2.00,18.00 2.00,44.00 2.00,44.00
             2.01,51.22 1.85,53.85 10.00,54.00
             10.00,54.00 53.00,54.00 53.00,54.00
             55.54,53.99 59.48,54.32 61.40,52.40
             63.19,50.61 62.98,47.35 62.95,45.00
             62.95,45.00 62.95,20.00 62.95,20.00
             62.95,20.00 62.95,15.00 62.95,15.00
             61.45,6.10 53.03,10.63 48.09,7.98
             45.27,6.46 43.80,3.36 41.54,1.87
             38.63,0.24 32.26,0.94 29.09,1.87 Z
           M 25.00,12.00
           C 26.72,5.14 30.06,3.50 36.96,4.05
             38.31,4.16 39.30,4.25 40.49,4.99
             42.58,6.29 44.01,9.39 47.04,10.98
             52.25,13.71 59.16,9.08 59.98,18.00
             59.98,18.00 59.98,22.00 59.98,22.00
             59.98,22.00 59.98,44.00 59.98,44.00
             59.88,50.06 59.06,50.88 53.00,51.00
             53.00,51.00 14.00,51.00 14.00,51.00
             11.70,51.00 7.59,51.38 6.02,49.40
             4.85,47.92 5.01,44.82 5.00,43.00
             5.00,43.00 5.00,19.00 5.00,19.00
             5.03,17.38 4.96,14.94 6.02,13.60
             8.03,11.07 21.42,12.00 25.00,12.00 Z
           M 33.00,16.58
           C 27.56,18.08 23.33,20.40 21.26,26.00
             18.32,33.96 21.47,41.37 29.01,44.98
             31.63,46.24 34.03,47.18 37.00,46.71
             39.37,46.34 42.08,44.85 43.96,43.39
             56.44,33.69 47.39,15.90 33.00,16.58 Z
           M 33.00,19.38
           C 37.33,19.22 42.32,20.36 44.91,24.21
             49.48,30.99 46.55,42.23 38.00,43.77
             20.78,46.88 17.59,23.64 33.00,19.38 Z
           M 12.60,20.15
           C 10.87,23.12 13.45,23.49 14.40,22.85
             15.36,22.21 16.01,19.69 12.60,20.15 Z" />
</svg>
