<?xml version="1.0" encoding="UTF-8" standalone="no"?>
<!DOCTYPE svg PUBLIC "-//W3C//DTD SVG 20010904//EN"
              "http://www.w3.org/TR/2001/REC-SVG-20010904/DTD/svg10.dtd">

<svg xmlns="http://www.w3.org/2000/svg"
     width="0.213333in" height="0.213333in"
     viewBox="0 0 64 64">
  <path id="Selection #1"
        fill="none" stroke="black" stroke-width="1"
        d="M 8.00,57.00
           C 12.84,56.77 22.93,54.62 27.00,52.15
             30.65,49.93 44.94,35.06 49.00,31.00
             53.64,26.36 62.89,20.03 57.68,13.00
             56.89,11.93 55.01,10.02 54.00,9.11
             46.53,2.39 44.22,6.78 33.00,18.00
             19.77,31.23 9.79,37.14 8.00,57.00 Z
           M 12.00,53.00
           C 12.68,49.63 13.89,43.96 15.44,41.00
             18.00,36.12 32.27,22.73 37.00,18.00
             42.53,12.47 47.99,4.24 54.63,14.01
             58.22,19.29 50.40,24.60 47.00,28.00
             42.61,32.39 28.21,47.56 24.00,49.86
             20.75,51.65 15.68,52.67 12.00,53.00 Z" />
</svg>
