<?xml version="1.0" encoding="UTF-8" standalone="no"?>
<!DOCTYPE svg PUBLIC "-//W3C//DTD SVG 20010904//EN"
              "http://www.w3.org/TR/2001/REC-SVG-20010904/DTD/svg10.dtd">

<svg xmlns="http://www.w3.org/2000/svg"
     width="0.276667in" height="0.276667in"
     viewBox="0 0 83 83">
  <path id="Selection #1"
        fill="black" stroke="black" stroke-width="1"
        d="M 1.00,82.00
           C 5.70,80.94 26.80,75.09 30.00,73.15
             33.17,71.22 40.02,63.98 43.00,61.00
             43.00,61.00 66.00,38.00 66.00,38.00
             71.31,32.69 85.75,22.12 81.13,14.00
             79.99,11.99 77.64,9.66 76.00,8.00
             73.46,5.44 69.69,1.30 66.00,0.76
             59.82,-0.16 48.36,13.64 44.00,18.00
             44.00,18.00 22.00,40.00 22.00,40.00
             19.02,42.98 11.78,49.83 9.85,53.00
             7.91,56.20 2.06,77.30 1.00,82.00 Z
           M 5.00,78.00
           C 5.51,72.31 9.84,57.63 12.99,53.00
             17.16,46.86 21.14,44.68 25.91,39.91
             25.91,39.91 34.01,31.09 34.01,31.09
             34.01,31.09 42.72,22.99 42.72,22.99
             42.72,22.99 55.91,9.91 55.91,9.91
             58.21,7.63 60.63,3.91 64.00,3.42
             68.05,2.83 76.08,11.33 78.26,14.42
             82.53,20.49 75.82,24.17 72.17,28.04
             72.17,28.04 64.00,36.83 64.00,36.83
             64.00,36.83 50.96,49.96 50.96,49.96
             50.96,49.96 43.09,57.09 43.09,57.09
             38.12,62.06 35.49,66.66 29.00,70.66
             24.54,73.42 10.33,77.52 5.00,78.00 Z" />
</svg>
